<?xml version="1.0" ?><!DOCTYPE svg  PUBLIC '-//W3C//DTD SVG 1.1//EN'  'http://www.w3.org/Graphics/SVG/1.1/DTD/svg11.dtd'><svg height="100%" style="fill-rule:evenodd;clip-rule:evenodd;stroke-linejoin:round;stroke-miterlimit:2;" version="1.1" viewBox="0 0 32 32" width="100%" xml:space="preserve" xmlns="http://www.w3.org/2000/svg" xmlns:serif="http://www.serif.com/" xmlns:xlink="http://www.w3.org/1999/xlink"><path d="M22.331,14.232l-1.09,2.162c-0.071,0.14 -0.204,0.239 -0.359,0.267c0,-0 -2.292,0.411 -2.292,0.411c-0.479,0.086 -0.877,0.437 -1.027,0.92c-0.148,0.473 -0.029,0.992 0.303,1.348c0,-0 1.646,1.763 1.646,1.763c0.103,0.11 0.151,0.26 0.13,0.41l-0.34,2.444c-0.069,0.494 0.134,0.986 0.521,1.279c0.401,0.304 0.929,0.35 1.373,0.121c-0,0 2.304,-1.185 2.304,-1.185c-0,-0 2.304,1.185 2.304,1.185c0.444,0.229 0.972,0.183 1.373,-0.121c0.387,-0.293 0.59,-0.785 0.521,-1.279l-0.34,-2.444c-0.021,-0.15 0.027,-0.3 0.13,-0.41c-0,-0 1.646,-1.763 1.646,-1.763c0.332,-0.356 0.451,-0.875 0.303,-1.348c-0.15,-0.483 -0.548,-0.834 -1.027,-0.92c-0,-0 -2.292,-0.411 -2.292,-0.411c-0.155,-0.028 -0.288,-0.127 -0.359,-0.267c0,-0 -1.09,-2.162 -1.09,-2.162c-0.228,-0.452 -0.68,-0.731 -1.169,-0.731c-0.489,0 -0.941,0.279 -1.169,0.731Zm-12.823,-6.846l-1.681,3.125c-0.073,0.136 -0.205,0.231 -0.357,0.256l-3.566,0.6c-0.619,0.104 -1.126,0.537 -1.32,1.121c-0.196,0.59 -0.043,1.237 0.399,1.681c-0,0 2.512,2.523 2.512,2.523c0.112,0.112 0.164,0.27 0.141,0.426c-0.158,1.067 -0.516,3.481 -0.516,3.481c-0.091,0.612 0.17,1.224 0.682,1.588c0.505,0.359 1.171,0.415 1.731,0.145c-0,-0 3.467,-1.673 3.467,-1.673c0,-0 3.467,1.673 3.467,1.673c0.56,0.27 1.226,0.214 1.731,-0.145c0.512,-0.364 0.773,-0.976 0.682,-1.588c0,-0 -0.358,-2.414 -0.516,-3.481c-0.023,-0.156 0.029,-0.314 0.141,-0.426c-0,0 2.512,-2.523 2.512,-2.523c0.442,-0.444 0.595,-1.091 0.399,-1.681c-0.194,-0.584 -0.701,-1.017 -1.32,-1.121c-0,-0 -2.492,-0.419 -3.566,-0.6c-0.152,-0.025 -0.284,-0.12 -0.357,-0.256l-1.681,-3.125c-0.292,-0.543 -0.865,-0.885 -1.492,-0.885c-0.627,0 -1.2,0.342 -1.492,0.885Z" style="fill:#f4d160;"/><path d="M17.52,18.168l0.127,0.857c0.057,0.114 0.131,0.22 0.219,0.315c0,-0 1.646,1.763 1.646,1.763c0.103,0.11 0.151,0.26 0.13,0.41l-0.34,2.444c-0.069,0.494 0.134,0.986 0.521,1.279c0.374,0.283 0.859,0.342 1.282,0.164c-0.098,-0.042 -0.193,-0.097 -0.281,-0.164c-0.387,-0.293 -0.59,-0.785 -0.522,-1.279l0.34,-2.444c0.021,-0.15 -0.027,-0.3 -0.13,-0.41c0,-0 -1.646,-1.763 -1.646,-1.763c-0.332,-0.356 -0.451,-0.875 -0.303,-1.348c0.15,-0.483 0.548,-0.834 1.027,-0.92c0,-0 2.292,-0.411 2.292,-0.411c0.155,-0.028 0.288,-0.127 0.359,-0.267l1.09,-2.162c0.147,-0.291 0.386,-0.51 0.669,-0.629c-0.156,-0.066 -0.326,-0.102 -0.5,-0.102c-0.489,0 -0.941,0.279 -1.169,0.731l-1.09,2.162c-0.071,0.14 -0.204,0.239 -0.359,0.267c0,-0 -2.292,0.411 -2.292,0.411c-0.479,0.086 -0.877,0.437 -1.027,0.92c-0.019,0.058 -0.033,0.117 -0.043,0.176Zm-10.23,4.259c-0.172,-0.053 -0.337,-0.133 -0.488,-0.24c-0.512,-0.364 -0.773,-0.976 -0.682,-1.588c-0,-0 0.358,-2.414 0.516,-3.481c0.023,-0.156 -0.029,-0.314 -0.141,-0.426c0,0 -2.512,-2.523 -2.512,-2.523c-0.442,-0.444 -0.595,-1.091 -0.399,-1.681c0.194,-0.584 0.701,-1.017 1.32,-1.121l3.566,-0.6c0.152,-0.025 0.284,-0.12 0.358,-0.256l1.68,-3.125c0.212,-0.394 0.571,-0.681 0.992,-0.81c-0.159,-0.049 -0.328,-0.075 -0.5,-0.075c-0.627,0 -1.2,0.342 -1.492,0.885l-1.681,3.125c-0.073,0.136 -0.205,0.231 -0.357,0.256l-3.566,0.6c-0.619,0.104 -1.126,0.537 -1.32,1.121c-0.196,0.59 -0.043,1.237 0.399,1.681c-0,0 2.512,2.523 2.512,2.523c0.112,0.112 0.164,0.27 0.141,0.426c-0.158,1.067 -0.516,3.481 -0.516,3.481c-0.091,0.612 0.17,1.224 0.682,1.588c0.434,0.308 0.986,0.393 1.488,0.24Z" style="fill:#d3a511;"/><path d="M23.5,24.172l-0.25,-0.129c0,-0 -2.554,1.314 -2.554,1.314c-0.11,0.057 -0.224,0.096 -0.341,0.119c0.28,0.056 0.576,0.018 0.841,-0.119l2.304,-1.185Zm-0.25,-10.646c0.389,0.077 0.731,0.332 0.92,0.706c-0,-0 1.09,2.162 1.09,2.162c0.07,0.14 0.203,0.239 0.358,0.267c-0,-0 2.292,0.411 2.292,0.411c0.479,0.086 0.877,0.437 1.028,0.92c0.147,0.473 0.028,0.992 -0.304,1.348c-0,-0 -1.646,1.763 -1.646,1.763c-0.103,0.11 -0.15,0.26 -0.13,0.41l0.34,2.444c0.069,0.494 -0.134,0.986 -0.521,1.279c-0.161,0.122 -0.343,0.203 -0.532,0.24c0.356,0.071 0.73,-0.011 1.032,-0.24c0.387,-0.293 0.59,-0.785 0.521,-1.279l-0.34,-2.444c-0.021,-0.15 0.027,-0.3 0.13,-0.41c-0,-0 1.646,-1.763 1.646,-1.763c0.332,-0.356 0.451,-0.875 0.303,-1.348c-0.15,-0.483 -0.548,-0.834 -1.027,-0.92c-0,-0 -2.292,-0.411 -2.292,-0.411c-0.155,-0.028 -0.288,-0.127 -0.359,-0.267c0,-0 -1.09,-2.162 -1.09,-2.162c-0.228,-0.452 -0.68,-0.731 -1.169,-0.731c-0.085,0 -0.168,0.009 -0.25,0.025Zm-12.25,7.133l-0.25,-0.121c0,0 -3.717,1.794 -3.717,1.794c-0.158,0.076 -0.324,0.126 -0.492,0.151c0.332,0.049 0.679,-0 0.992,-0.151l3.467,-1.673Zm-0.25,-14.139c0.526,0.077 0.99,0.396 1.242,0.866l1.681,3.125c0.073,0.136 0.205,0.231 0.357,0.256c1.074,0.181 3.566,0.6 3.566,0.6c0.619,0.104 1.126,0.537 1.32,1.121c0.196,0.59 0.043,1.237 -0.399,1.681c0,0 -2.512,2.523 -2.512,2.523c-0.112,0.112 -0.164,0.27 -0.141,0.426c0.159,1.067 0.517,3.481 0.517,3.481c0.09,0.612 -0.171,1.224 -0.683,1.588c-0.222,0.158 -0.476,0.257 -0.738,0.296c0.429,0.063 0.875,-0.038 1.238,-0.296c0.512,-0.364 0.773,-0.976 0.682,-1.588c0,-0 -0.358,-2.414 -0.516,-3.481c-0.023,-0.156 0.029,-0.314 0.141,-0.426c-0,0 2.512,-2.523 2.512,-2.523c0.442,-0.444 0.595,-1.091 0.399,-1.681c-0.194,-0.584 -0.701,-1.017 -1.32,-1.121c-0,-0 -2.492,-0.419 -3.566,-0.6c-0.152,-0.025 -0.284,-0.12 -0.357,-0.256l-1.681,-3.125c-0.292,-0.543 -0.865,-0.885 -1.492,-0.885c-0.084,0 -0.168,0.007 -0.25,0.019Z" style="fill:#ffe286;"/></svg>